<mxfile host="app.diagrams.net" agent="Mozilla/5.0 (Windows NT 10.0; Win64; x64) AppleWebKit/537.36 (KHTML, like Gecko) Chrome/137.0.0.0 Safari/537.36" version="27.1.4">
  <diagram name="UC2: Підтвердження виїзду водієм" id="0">
    <mxGraphModel dx="834" dy="459" grid="1" gridSize="10" guides="1" tooltips="1" connect="1" arrows="1" fold="1" page="1" pageScale="1" pageWidth="827" pageHeight="1169" math="0" shadow="0">
      <root>
        <mxCell id="0" />
        <mxCell id="1" parent="0" />
        <mxCell id="P1" value="Водій" style="swimlane" parent="1" vertex="1" collapsed="1">
          <mxGeometry x="120" y="20" width="70" height="30" as="geometry">
            <mxRectangle x="40" y="20" width="140" height="900" as="alternateBounds" />
          </mxGeometry>
        </mxCell>
        <mxCell id="P2" value="Застосунок" style="swimlane" parent="1" vertex="1" collapsed="1">
          <mxGeometry x="414" y="20" width="100" height="30" as="geometry">
            <mxRectangle x="200" y="20" width="140" height="900" as="alternateBounds" />
          </mxGeometry>
        </mxCell>
        <mxCell id="P3" value="Система автовокзалу" style="swimlane" parent="1" vertex="1" collapsed="1">
          <mxGeometry x="650" y="20" width="160" height="30" as="geometry">
            <mxRectangle x="360" y="20" width="140" height="900" as="alternateBounds" />
          </mxGeometry>
        </mxCell>
        <mxCell id="m1" value="Відкрити застосунок" style="endArrow=block;" parent="1" edge="1">
          <mxGeometry relative="1" as="geometry">
            <mxPoint x="160" y="120" as="sourcePoint" />
            <mxPoint x="464" y="120" as="targetPoint" />
          </mxGeometry>
        </mxCell>
        <mxCell id="m2" value="Перейти до розкладу" style="endArrow=block;" parent="1" edge="1">
          <mxGeometry relative="1" as="geometry">
            <mxPoint x="160" y="160" as="sourcePoint" />
            <mxPoint x="464" y="160" as="targetPoint" />
          </mxGeometry>
        </mxCell>
        <mxCell id="m3" value="Отримати список рейсів" style="endArrow=block;" parent="1" edge="1">
          <mxGeometry relative="1" as="geometry">
            <mxPoint x="460" y="140" as="sourcePoint" />
            <mxPoint x="730" y="140" as="targetPoint" />
          </mxGeometry>
        </mxCell>
        <mxCell id="m4" value="Показати рейси водія" style="endArrow=block;" parent="1" edge="1">
          <mxGeometry relative="1" as="geometry">
            <mxPoint x="730" y="90" as="sourcePoint" />
            <mxPoint x="460" y="90" as="targetPoint" />
          </mxGeometry>
        </mxCell>
        <mxCell id="m5" value="Обрати рейс → Почати рейс" style="endArrow=block;" parent="1" edge="1">
          <mxGeometry relative="1" as="geometry">
            <mxPoint x="160" y="220" as="sourcePoint" />
            <mxPoint x="464" y="220" as="targetPoint" />
          </mxGeometry>
        </mxCell>
        <mxCell id="m6" value="Фіксувати час виїзду" style="endArrow=block;" parent="1" edge="1">
          <mxGeometry relative="1" as="geometry">
            <mxPoint x="460" y="250" as="sourcePoint" />
            <mxPoint x="730" y="250" as="targetPoint" />
          </mxGeometry>
        </mxCell>
        <mxCell id="m7" value="Оновити статус рейсу на &#39;У рейсі&#39;" style="endArrow=block;" parent="1" edge="1">
          <mxGeometry relative="1" as="geometry">
            <mxPoint x="730" y="190" as="sourcePoint" />
            <mxPoint x="460" y="190" as="targetPoint" />
          </mxGeometry>
        </mxCell>
        <mxCell id="m8" value="Підтвердження оновлення" style="endArrow=block;" parent="1" edge="1">
          <mxGeometry relative="1" as="geometry">
            <mxPoint x="460" y="270" as="sourcePoint" />
            <mxPoint x="160" y="270" as="targetPoint" />
          </mxGeometry>
        </mxCell>
        <mxCell id="NV_XFz9OnK90A9OzpoZO-2" value="" style="endArrow=none;dashed=1;html=1;dashPattern=1 3;strokeWidth=2;rounded=0;entryX=0.5;entryY=1;entryDx=0;entryDy=0;" edge="1" parent="1">
          <mxGeometry width="50" height="50" relative="1" as="geometry">
            <mxPoint x="466.5" y="481.60001627604174" as="sourcePoint" />
            <mxPoint x="461.5" y="50" as="targetPoint" />
          </mxGeometry>
        </mxCell>
        <mxCell id="NV_XFz9OnK90A9OzpoZO-3" value="" style="endArrow=none;dashed=1;html=1;dashPattern=1 3;strokeWidth=2;rounded=0;entryX=0.5;entryY=1;entryDx=0;entryDy=0;" edge="1" parent="1">
          <mxGeometry width="50" height="50" relative="1" as="geometry">
            <mxPoint x="732.5" y="471.60001627604174" as="sourcePoint" />
            <mxPoint x="727.5" y="40" as="targetPoint" />
          </mxGeometry>
        </mxCell>
        <mxCell id="NV_XFz9OnK90A9OzpoZO-5" value="" style="endArrow=none;dashed=1;html=1;dashPattern=1 3;strokeWidth=2;rounded=0;entryX=0.5;entryY=1;entryDx=0;entryDy=0;" edge="1" parent="1">
          <mxGeometry width="50" height="50" relative="1" as="geometry">
            <mxPoint x="165" y="481.60001627604174" as="sourcePoint" />
            <mxPoint x="160" y="50" as="targetPoint" />
          </mxGeometry>
        </mxCell>
      </root>
    </mxGraphModel>
  </diagram>
</mxfile>
